<svg width="43" height="38" viewBox="0 0 43 38" fill="none" xmlns="http://www.w3.org/2000/svg">
<path d="M18.527 7.49141L22.7682 5.375H37.625V13.4375H27.9836C26.1443 12.1693 23.9104 11.4219 21.5 11.4219C19.0896 11.4219 16.8641 12.1693 15.0164 13.4375H5.375V8.0625H16.125C16.9564 8.0625 17.7795 7.86934 18.527 7.49141ZM0 8.0625V32.25C0 35.2146 2.41035 37.625 5.375 37.625H37.625C40.5896 37.625 43 35.2146 43 32.25V5.375C43 2.41035 40.5896 0 37.625 0H22.7682C21.9367 0 21.1137 0.193164 20.3662 0.571094L16.125 2.6875H13.4375V1.34375C13.4375 0.604688 12.8328 0 12.0938 0H6.71875C5.97969 0 5.375 0.604688 5.375 1.34375V2.6875C2.41035 2.6875 0 5.09785 0 8.0625ZM14.1094 22.8438C14.1094 20.8836 14.888 19.0038 16.274 17.6178C17.66 16.2318 19.5399 15.4531 21.5 15.4531C23.4601 15.4531 25.34 16.2318 26.726 17.6178C28.112 19.0038 28.8906 20.8836 28.8906 22.8438C28.8906 24.8039 28.112 26.6837 26.726 28.0697C25.34 29.4557 23.4601 30.2344 21.5 30.2344C19.5399 30.2344 17.66 29.4557 16.274 28.0697C14.888 26.6837 14.1094 24.8039 14.1094 22.8438Z" fill="#464646"/>
</svg>
